<mxfile host="65bd71144e" modified="2021-03-01T11:02:08.810Z" agent="5.0 (Windows NT 10.0; Win64; x64) AppleWebKit/537.36 (KHTML, like Gecko) Code/1.53.2 Chrome/87.0.4280.141 Electron/11.2.1 Safari/537.36" etag="vJ5kdXxsrvhV19CjlD4F" version="14.2.4" type="embed">
    <diagram id="yUV_xDKgN1Wq93JJRPa6" name="Page-1">
        <mxGraphModel dx="1198" dy="1150" grid="1" gridSize="10" guides="1" tooltips="1" connect="1" arrows="1" fold="1" page="1" pageScale="1" pageWidth="827" pageHeight="1169" math="0" shadow="0">
            <root>
                <mxCell id="0"/>
                <mxCell id="1" parent="0"/>
                <mxCell id="Qk5PjoM3-Ul8p28EcVzI-2" value="" style="endArrow=classic;html=1;" parent="1" edge="1">
                    <mxGeometry width="50" height="50" relative="1" as="geometry">
                        <mxPoint x="409" y="60" as="sourcePoint"/>
                        <mxPoint x="489" y="60" as="targetPoint"/>
                    </mxGeometry>
                </mxCell>
                <mxCell id="Qk5PjoM3-Ul8p28EcVzI-3" value="" style="endArrow=classic;html=1;" parent="1" edge="1">
                    <mxGeometry width="50" height="50" relative="1" as="geometry">
                        <mxPoint x="409" y="180" as="sourcePoint"/>
                        <mxPoint x="489" y="180" as="targetPoint"/>
                    </mxGeometry>
                </mxCell>
                <mxCell id="Qk5PjoM3-Ul8p28EcVzI-4" value="IN" style="text;html=1;strokeColor=none;fillColor=none;align=center;verticalAlign=middle;whiteSpace=wrap;rounded=0;" parent="1" vertex="1">
                    <mxGeometry x="80" y="110" width="40" height="20" as="geometry"/>
                </mxCell>
                <mxCell id="Qk5PjoM3-Ul8p28EcVzI-5" value="" style="rounded=0;whiteSpace=wrap;html=1;" parent="1" vertex="1">
                    <mxGeometry x="209" y="20" width="200" height="200" as="geometry"/>
                </mxCell>
                <mxCell id="Qk5PjoM3-Ul8p28EcVzI-6" value="CH1" style="text;html=1;strokeColor=none;fillColor=none;align=center;verticalAlign=middle;whiteSpace=wrap;rounded=0;" parent="1" vertex="1">
                    <mxGeometry x="489" y="50" width="40" height="20" as="geometry"/>
                </mxCell>
                <mxCell id="Qk5PjoM3-Ul8p28EcVzI-7" value="CH2" style="text;html=1;strokeColor=none;fillColor=none;align=center;verticalAlign=middle;whiteSpace=wrap;rounded=0;" parent="1" vertex="1">
                    <mxGeometry x="489" y="170" width="40" height="20" as="geometry"/>
                </mxCell>
                <mxCell id="Qk5PjoM3-Ul8p28EcVzI-8" value="DSP" style="text;html=1;strokeColor=none;fillColor=none;align=center;verticalAlign=middle;whiteSpace=wrap;rounded=0;" parent="1" vertex="1">
                    <mxGeometry x="289" y="110" width="40" height="20" as="geometry"/>
                </mxCell>
                <mxCell id="27" style="edgeStyle=none;rounded=0;orthogonalLoop=1;jettySize=auto;html=1;entryX=-0.009;entryY=0.335;entryDx=0;entryDy=0;entryPerimeter=0;" parent="1" source="Qk5PjoM3-Ul8p28EcVzI-9" target="20" edge="1">
                    <mxGeometry relative="1" as="geometry"/>
                </mxCell>
                <mxCell id="Qk5PjoM3-Ul8p28EcVzI-9" value="CH1" style="text;html=1;strokeColor=none;fillColor=none;align=center;verticalAlign=middle;whiteSpace=wrap;rounded=0;" parent="1" vertex="1">
                    <mxGeometry x="10" y="460" width="40" height="20" as="geometry"/>
                </mxCell>
                <mxCell id="26" style="edgeStyle=none;rounded=0;orthogonalLoop=1;jettySize=auto;html=1;entryX=-0.013;entryY=0.668;entryDx=0;entryDy=0;entryPerimeter=0;" parent="1" source="Qk5PjoM3-Ul8p28EcVzI-10" target="20" edge="1">
                    <mxGeometry relative="1" as="geometry"/>
                </mxCell>
                <mxCell id="Qk5PjoM3-Ul8p28EcVzI-10" value="CH2" style="text;html=1;strokeColor=none;fillColor=none;align=center;verticalAlign=middle;whiteSpace=wrap;rounded=0;" parent="1" vertex="1">
                    <mxGeometry x="10" y="480" width="40" height="20" as="geometry"/>
                </mxCell>
                <mxCell id="Qk5PjoM3-Ul8p28EcVzI-11" value="TRIM&lt;br&gt;-10/+10dB&lt;br&gt;2dB step" style="rounded=0;whiteSpace=wrap;html=1;" parent="1" vertex="1">
                    <mxGeometry x="300" y="340" width="120" height="60" as="geometry"/>
                </mxCell>
                <mxCell id="Qk5PjoM3-Ul8p28EcVzI-21" style="edgeStyle=orthogonalEdgeStyle;rounded=0;orthogonalLoop=1;jettySize=auto;html=1;exitX=1;exitY=0.5;exitDx=0;exitDy=0;" parent="1" source="Qk5PjoM3-Ul8p28EcVzI-11" edge="1">
                    <mxGeometry relative="1" as="geometry">
                        <mxPoint x="470" y="370.02857142857147" as="targetPoint"/>
                        <mxPoint x="434" y="370" as="sourcePoint"/>
                    </mxGeometry>
                </mxCell>
                <mxCell id="Qk5PjoM3-Ul8p28EcVzI-86" style="edgeStyle=orthogonalEdgeStyle;rounded=0;orthogonalLoop=1;jettySize=auto;html=1;exitX=0;exitY=0.5;exitDx=0;exitDy=0;" parent="1" source="16" edge="1">
                    <mxGeometry relative="1" as="geometry">
                        <mxPoint x="374" y="400" as="sourcePoint"/>
                        <mxPoint x="440" y="430" as="targetPoint"/>
                        <Array as="points">
                            <mxPoint x="440" y="290"/>
                        </Array>
                    </mxGeometry>
                </mxCell>
                <mxCell id="19" style="edgeStyle=none;rounded=0;orthogonalLoop=1;jettySize=auto;html=1;exitX=1;exitY=0.5;exitDx=0;exitDy=0;entryX=0;entryY=0.9;entryDx=0;entryDy=0;entryPerimeter=0;" parent="1" source="Qk5PjoM3-Ul8p28EcVzI-38" target="13" edge="1">
                    <mxGeometry relative="1" as="geometry"/>
                </mxCell>
                <mxCell id="Qk5PjoM3-Ul8p28EcVzI-38" value="TRIM&lt;br&gt;-10/+10dB&lt;br&gt;2dB step" style="rounded=0;whiteSpace=wrap;html=1;" parent="1" vertex="1">
                    <mxGeometry x="300" y="580" width="120" height="60" as="geometry"/>
                </mxCell>
                <mxCell id="17" style="edgeStyle=none;rounded=0;orthogonalLoop=1;jettySize=auto;html=1;exitX=0.5;exitY=0;exitDx=0;exitDy=0;entryX=0.5;entryY=1;entryDx=0;entryDy=0;" parent="1" source="Qk5PjoM3-Ul8p28EcVzI-40" target="13" edge="1">
                    <mxGeometry relative="1" as="geometry"/>
                </mxCell>
                <mxCell id="18" style="edgeStyle=none;rounded=0;orthogonalLoop=1;jettySize=auto;html=1;exitX=0;exitY=0.5;exitDx=0;exitDy=0;entryX=0.835;entryY=1.002;entryDx=0;entryDy=0;entryPerimeter=0;" parent="1" source="Qk5PjoM3-Ul8p28EcVzI-40" target="Qk5PjoM3-Ul8p28EcVzI-84" edge="1">
                    <mxGeometry relative="1" as="geometry">
                        <Array as="points">
                            <mxPoint x="439" y="690"/>
                        </Array>
                    </mxGeometry>
                </mxCell>
                <mxCell id="Qk5PjoM3-Ul8p28EcVzI-40" value="MUTE&lt;br&gt;push button&lt;br&gt;w latch" style="rounded=0;whiteSpace=wrap;html=1;" parent="1" vertex="1">
                    <mxGeometry x="570" y="660" width="120" height="60" as="geometry"/>
                </mxCell>
                <mxCell id="Qk5PjoM3-Ul8p28EcVzI-54" style="edgeStyle=orthogonalEdgeStyle;rounded=0;orthogonalLoop=1;jettySize=auto;html=1;exitX=1;exitY=0.5;exitDx=0;exitDy=0;entryX=0;entryY=0.5;entryDx=0;entryDy=0;" parent="1" target="Qk5PjoM3-Ul8p28EcVzI-5" edge="1">
                    <mxGeometry relative="1" as="geometry">
                        <mxPoint x="120" y="120" as="sourcePoint"/>
                    </mxGeometry>
                </mxCell>
                <mxCell id="4" style="rounded=0;orthogonalLoop=1;jettySize=auto;html=1;entryX=0.003;entryY=0.152;entryDx=0;entryDy=0;entryPerimeter=0;" parent="1" source="Qk5PjoM3-Ul8p28EcVzI-57" target="Qk5PjoM3-Ul8p28EcVzI-58" edge="1">
                    <mxGeometry relative="1" as="geometry"/>
                </mxCell>
                <mxCell id="Qk5PjoM3-Ul8p28EcVzI-57" value="VOUT1MON" style="text;html=1;align=center;verticalAlign=middle;resizable=0;points=[];autosize=1;" parent="1" vertex="1">
                    <mxGeometry x="240" y="430" width="80" height="20" as="geometry"/>
                </mxCell>
                <mxCell id="Qk5PjoM3-Ul8p28EcVzI-58" value="single VU METER&lt;br&gt;descrete (3 levels)" style="rounded=0;whiteSpace=wrap;html=1;" parent="1" vertex="1">
                    <mxGeometry x="339" y="430" width="120" height="60" as="geometry"/>
                </mxCell>
                <mxCell id="Qk5PjoM3-Ul8p28EcVzI-84" value="single VU METER&lt;br&gt;descrete (3 levels)" style="rounded=0;whiteSpace=wrap;html=1;" parent="1" vertex="1">
                    <mxGeometry x="339" y="500" width="120" height="60" as="geometry"/>
                </mxCell>
                <mxCell id="5" style="edgeStyle=orthogonalEdgeStyle;rounded=0;orthogonalLoop=1;jettySize=auto;html=1;entryX=0;entryY=0.5;entryDx=0;entryDy=0;" parent="1" source="2" target="Qk5PjoM3-Ul8p28EcVzI-58" edge="1">
                    <mxGeometry relative="1" as="geometry"/>
                </mxCell>
                <mxCell id="2" value="TEMP" style="text;html=1;align=center;verticalAlign=middle;resizable=0;points=[];autosize=1;" parent="1" vertex="1">
                    <mxGeometry x="240" y="450" width="50" height="20" as="geometry"/>
                </mxCell>
                <mxCell id="6" style="rounded=0;orthogonalLoop=1;jettySize=auto;html=1;entryX=-0.011;entryY=0.843;entryDx=0;entryDy=0;entryPerimeter=0;" parent="1" source="3" target="Qk5PjoM3-Ul8p28EcVzI-58" edge="1">
                    <mxGeometry relative="1" as="geometry">
                        <mxPoint x="315" y="481" as="targetPoint"/>
                    </mxGeometry>
                </mxCell>
                <mxCell id="3" value="PROTECT" style="text;html=1;align=center;verticalAlign=middle;resizable=0;points=[];autosize=1;" parent="1" vertex="1">
                    <mxGeometry x="240" y="470" width="70" height="20" as="geometry"/>
                </mxCell>
                <mxCell id="10" style="rounded=0;orthogonalLoop=1;jettySize=auto;html=1;entryX=-0.003;entryY=0.121;entryDx=0;entryDy=0;entryPerimeter=0;" parent="1" source="7" target="Qk5PjoM3-Ul8p28EcVzI-84" edge="1">
                    <mxGeometry relative="1" as="geometry"/>
                </mxCell>
                <mxCell id="7" value="VOUT2MON" style="text;html=1;align=center;verticalAlign=middle;resizable=0;points=[];autosize=1;" parent="1" vertex="1">
                    <mxGeometry x="240" y="500" width="80" height="20" as="geometry"/>
                </mxCell>
                <mxCell id="11" style="edgeStyle=orthogonalEdgeStyle;rounded=0;orthogonalLoop=1;jettySize=auto;html=1;entryX=0;entryY=0.5;entryDx=0;entryDy=0;" parent="1" source="8" target="Qk5PjoM3-Ul8p28EcVzI-84" edge="1">
                    <mxGeometry relative="1" as="geometry"/>
                </mxCell>
                <mxCell id="8" value="TEMP" style="text;html=1;align=center;verticalAlign=middle;resizable=0;points=[];autosize=1;" parent="1" vertex="1">
                    <mxGeometry x="240" y="520" width="50" height="20" as="geometry"/>
                </mxCell>
                <mxCell id="12" style="rounded=0;orthogonalLoop=1;jettySize=auto;html=1;entryX=-0.019;entryY=0.827;entryDx=0;entryDy=0;entryPerimeter=0;" parent="1" source="9" target="Qk5PjoM3-Ul8p28EcVzI-84" edge="1">
                    <mxGeometry relative="1" as="geometry">
                        <mxPoint x="314" y="545" as="targetPoint"/>
                    </mxGeometry>
                </mxCell>
                <mxCell id="9" value="PROTECT" style="text;html=1;align=center;verticalAlign=middle;resizable=0;points=[];autosize=1;" parent="1" vertex="1">
                    <mxGeometry x="240" y="540" width="70" height="20" as="geometry"/>
                </mxCell>
                <mxCell id="14" style="edgeStyle=orthogonalEdgeStyle;rounded=0;orthogonalLoop=1;jettySize=auto;html=1;exitX=1;exitY=0.25;exitDx=0;exitDy=0;" parent="1" source="13" edge="1">
                    <mxGeometry relative="1" as="geometry">
                        <mxPoint x="820" y="415" as="targetPoint"/>
                    </mxGeometry>
                </mxCell>
                <mxCell id="15" style="edgeStyle=orthogonalEdgeStyle;rounded=0;orthogonalLoop=1;jettySize=auto;html=1;exitX=1;exitY=0.75;exitDx=0;exitDy=0;" parent="1" source="13" edge="1">
                    <mxGeometry relative="1" as="geometry">
                        <mxPoint x="820" y="565.2857142857142" as="targetPoint"/>
                    </mxGeometry>
                </mxCell>
                <mxCell id="13" value="AMP" style="rounded=0;whiteSpace=wrap;html=1;" parent="1" vertex="1">
                    <mxGeometry x="470" y="340" width="320" height="300" as="geometry"/>
                </mxCell>
                <mxCell id="30" style="edgeStyle=none;rounded=0;orthogonalLoop=1;jettySize=auto;html=1;exitX=0.5;exitY=1;exitDx=0;exitDy=0;entryX=0.5;entryY=0;entryDx=0;entryDy=0;" parent="1" source="16" target="13" edge="1">
                    <mxGeometry relative="1" as="geometry"/>
                </mxCell>
                <mxCell id="16" value="MUTE&lt;br&gt;push button&lt;br&gt;w latch" style="rounded=0;whiteSpace=wrap;html=1;" parent="1" vertex="1">
                    <mxGeometry x="570" y="260" width="120" height="60" as="geometry"/>
                </mxCell>
                <mxCell id="28" style="edgeStyle=none;rounded=0;orthogonalLoop=1;jettySize=auto;html=1;exitX=1;exitY=0.25;exitDx=0;exitDy=0;entryX=-0.023;entryY=0.446;entryDx=0;entryDy=0;entryPerimeter=0;" parent="1" source="20" target="Qk5PjoM3-Ul8p28EcVzI-11" edge="1">
                    <mxGeometry relative="1" as="geometry">
                        <Array as="points">
                            <mxPoint x="230" y="465"/>
                            <mxPoint x="230" y="367"/>
                        </Array>
                    </mxGeometry>
                </mxCell>
                <mxCell id="29" style="edgeStyle=none;rounded=0;orthogonalLoop=1;jettySize=auto;html=1;exitX=1;exitY=0.75;exitDx=0;exitDy=0;entryX=0;entryY=0.5;entryDx=0;entryDy=0;" parent="1" source="20" target="Qk5PjoM3-Ul8p28EcVzI-38" edge="1">
                    <mxGeometry relative="1" as="geometry">
                        <Array as="points">
                            <mxPoint x="230" y="495"/>
                            <mxPoint x="230" y="610"/>
                        </Array>
                    </mxGeometry>
                </mxCell>
                <mxCell id="20" value="HP filter&lt;br&gt;2nd order&lt;br&gt;fixed Q = 3&lt;br&gt;rotary switch 3p3t" style="rounded=0;whiteSpace=wrap;html=1;" parent="1" vertex="1">
                    <mxGeometry x="75" y="450" width="120" height="60" as="geometry"/>
                </mxCell>
                <mxCell id="31" value="" style="endArrow=classic;html=1;entryX=0.542;entryY=0;entryDx=0;entryDy=0;entryPerimeter=0;" parent="1" target="20" edge="1">
                    <mxGeometry width="50" height="50" relative="1" as="geometry">
                        <mxPoint x="140" y="420" as="sourcePoint"/>
                        <mxPoint x="140" y="370" as="targetPoint"/>
                    </mxGeometry>
                </mxCell>
                <mxCell id="32" value="ON/OFF(true bypass)" style="text;html=1;align=center;verticalAlign=middle;resizable=0;points=[];autosize=1;" parent="1" vertex="1">
                    <mxGeometry x="75" y="400" width="130" height="20" as="geometry"/>
                </mxCell>
            </root>
        </mxGraphModel>
    </diagram>
</mxfile>